<?xml version="1.0" encoding="UTF-8" standalone="no"?>
<!DOCTYPE svg PUBLIC "-//W3C//DTD SVG 1.1//EN"
 "http://www.w3.org/Graphics/SVG/1.1/DTD/svg11.dtd">
<!-- Generated by graphviz version 2.40.1 (20161225.0304)
 -->
<!-- Title: dependencies Pages: 1 -->
<svg width="2654pt" height="284pt"
 viewBox="0.00 0.00 2654.00 284.00" xmlns="http://www.w3.org/2000/svg" xmlns:xlink="http://www.w3.org/1999/xlink">
<g id="graph0" class="graph" transform="scale(1 1) rotate(0) translate(4 280)">
<title>dependencies</title>
<polygon fill="#ffffff" stroke="transparent" points="-4,4 -4,-280 2650,-280 2650,4 -4,4"/>
<text text-anchor="start" x="1302.0091" y="-42.4" font-family="sans-serif" font-weight="bold" font-size="14.00" fill="#000000">Legend</text>
<polygon fill="#ffffb3" stroke="transparent" points="1089,-10 1089,-30 1109,-30 1109,-10 1089,-10"/>
<text text-anchor="start" x="1112.629" y="-15.4" font-family="sans-serif" font-size="14.00" fill="#000000"> &#160;Declarations</text>
<polygon fill="#8dd3c7" stroke="transparent" points="1202,-10 1202,-30 1222,-30 1222,-10 1202,-10"/>
<text text-anchor="start" x="1225.7251" y="-15.4" font-family="sans-serif" font-size="14.00" fill="#000000"> &#160;Module</text>
<polygon fill="#80b1d3" stroke="transparent" points="1288,-10 1288,-30 1308,-30 1308,-10 1288,-10"/>
<text text-anchor="start" x="1311.7812" y="-15.4" font-family="sans-serif" font-size="14.00" fill="#000000"> &#160;Bootstrap</text>
<polygon fill="#fdb462" stroke="transparent" points="1385,-10 1385,-30 1405,-30 1405,-10 1385,-10"/>
<text text-anchor="start" x="1408.6732" y="-15.4" font-family="sans-serif" font-size="14.00" fill="#000000"> &#160;Providers</text>
<polygon fill="#fb8072" stroke="transparent" points="1481,-10 1481,-30 1501,-30 1501,-10 1481,-10"/>
<text text-anchor="start" x="1504.7258" y="-15.4" font-family="sans-serif" font-size="14.00" fill="#000000"> &#160;Exports</text>
<g id="clust1" class="cluster">
<title>cluster_AppModule</title>
<polygon fill="none" stroke="#000000" stroke-dasharray="1,5" points="8,-70 8,-268 2638,-268 2638,-70 8,-70"/>
</g>
<g id="clust2" class="cluster">
<title>cluster_AppModule_declarations</title>
<polygon fill="none" stroke="#000000" points="462,-78 462,-130 2630,-130 2630,-78 462,-78"/>
</g>
<g id="clust17" class="cluster">
<title>cluster_AppModule_imports</title>
<polygon fill="none" stroke="#000000" points="334,-78 334,-130 454,-130 454,-78 334,-78"/>
</g>
<g id="clust19" class="cluster">
<title>cluster_AppModule_bootstrap</title>
<polygon fill="none" stroke="#000000" points="1254,-208 1254,-260 1378,-260 1378,-208 1254,-208"/>
</g>
<g id="clust20" class="cluster">
<title>cluster_AppModule_providers</title>
<polygon fill="none" stroke="#000000" points="16,-78 16,-130 326,-130 326,-78 16,-78"/>
</g>
<!-- AppComponent -->
<g id="node1" class="node">
<title>AppComponent</title>
<polygon fill="#ffffb3" stroke="#000000" points="2621.9399,-122 2516.0601,-122 2516.0601,-86 2621.9399,-86 2621.9399,-122"/>
<text text-anchor="middle" x="2569" y="-99.8" font-family="Times,serif" font-size="14.00" fill="#000000">AppComponent</text>
</g>
<!-- AppModule -->
<g id="node15" class="node">
<title>AppModule</title>
<polygon fill="#8dd3c7" stroke="#000000" points="1357.6571,-187 1354.6571,-191 1333.6571,-191 1330.6571,-187 1274.3429,-187 1274.3429,-151 1357.6571,-151 1357.6571,-187"/>
<text text-anchor="middle" x="1316" y="-164.8" font-family="Times,serif" font-size="14.00" fill="#000000">AppModule</text>
</g>
<!-- AppComponent&#45;&gt;AppModule -->
<g id="edge1" class="edge">
<title>AppComponent&#45;&gt;AppModule</title>
<path fill="none" stroke="#000000" d="M2569,-122.3228C2569,-145.6602 2569,-183 2569,-183 2569,-183 1367.6896,-183 1367.6896,-183"/>
<polygon fill="#000000" stroke="#000000" points="1367.6896,-179.5001 1357.6896,-183 1367.6895,-186.5001 1367.6896,-179.5001"/>
</g>
<!-- CompetenciasComponent -->
<g id="node2" class="node">
<title>CompetenciasComponent</title>
<polygon fill="#ffffb3" stroke="#000000" points="2498.1442,-122 2337.8558,-122 2337.8558,-86 2498.1442,-86 2498.1442,-122"/>
<text text-anchor="middle" x="2418" y="-99.8" font-family="Times,serif" font-size="14.00" fill="#000000">CompetenciasComponent</text>
</g>
<!-- CompetenciasComponent&#45;&gt;AppModule -->
<g id="edge2" class="edge">
<title>CompetenciasComponent&#45;&gt;AppModule</title>
<path fill="none" stroke="#000000" d="M2418,-122.1554C2418,-144.3519 2418,-179 2418,-179 2418,-179 1367.854,-179 1367.854,-179"/>
<polygon fill="#000000" stroke="#000000" points="1367.8541,-175.5001 1357.854,-179 1367.854,-182.5001 1367.8541,-175.5001"/>
</g>
<!-- CualificacionesComponent -->
<g id="node3" class="node">
<title>CualificacionesComponent</title>
<polygon fill="#ffffb3" stroke="#000000" points="2319.4101,-122 2150.5899,-122 2150.5899,-86 2319.4101,-86 2319.4101,-122"/>
<text text-anchor="middle" x="2235" y="-99.8" font-family="Times,serif" font-size="14.00" fill="#000000">CualificacionesComponent</text>
</g>
<!-- CualificacionesComponent&#45;&gt;AppModule -->
<g id="edge3" class="edge">
<title>CualificacionesComponent&#45;&gt;AppModule</title>
<path fill="none" stroke="#000000" d="M2235,-122.2843C2235,-143.3211 2235,-175 2235,-175 2235,-175 1367.8756,-175 1367.8756,-175"/>
<polygon fill="#000000" stroke="#000000" points="1367.8756,-171.5001 1357.8756,-175 1367.8755,-178.5001 1367.8756,-171.5001"/>
</g>
<!-- DashboardComponent -->
<g id="node4" class="node">
<title>DashboardComponent</title>
<polygon fill="#ffffb3" stroke="#000000" points="2132.9734,-122 1991.0266,-122 1991.0266,-86 2132.9734,-86 2132.9734,-122"/>
<text text-anchor="middle" x="2062" y="-99.8" font-family="Times,serif" font-size="14.00" fill="#000000">DashboardComponent</text>
</g>
<!-- DashboardComponent&#45;&gt;AppModule -->
<g id="edge4" class="edge">
<title>DashboardComponent&#45;&gt;AppModule</title>
<path fill="none" stroke="#000000" d="M2062,-122.308C2062,-142.1455 2062,-171 2062,-171 2062,-171 1367.7067,-171 1367.7067,-171"/>
<polygon fill="#000000" stroke="#000000" points="1367.7067,-167.5001 1357.7067,-171 1367.7067,-174.5001 1367.7067,-167.5001"/>
</g>
<!-- ItinerarioComponent -->
<g id="node5" class="node">
<title>ItinerarioComponent</title>
<polygon fill="#ffffb3" stroke="#000000" points="1972.9158,-122 1839.0842,-122 1839.0842,-86 1972.9158,-86 1972.9158,-122"/>
<text text-anchor="middle" x="1906" y="-99.8" font-family="Times,serif" font-size="14.00" fill="#000000">ItinerarioComponent</text>
</g>
<!-- ItinerarioComponent&#45;&gt;AppModule -->
<g id="edge5" class="edge">
<title>ItinerarioComponent&#45;&gt;AppModule</title>
<path fill="none" stroke="#000000" d="M1906,-122.2222C1906,-140.8285 1906,-167 1906,-167 1906,-167 1367.9584,-167 1367.9584,-167"/>
<polygon fill="#000000" stroke="#000000" points="1367.9584,-163.5001 1357.9584,-167 1367.9583,-170.5001 1367.9584,-163.5001"/>
</g>
<!-- LoginComponent -->
<g id="node6" class="node">
<title>LoginComponent</title>
<polygon fill="#ffffb3" stroke="#000000" points="1821.2758,-122 1706.7242,-122 1706.7242,-86 1821.2758,-86 1821.2758,-122"/>
<text text-anchor="middle" x="1764" y="-99.8" font-family="Times,serif" font-size="14.00" fill="#000000">LoginComponent</text>
</g>
<!-- LoginComponent&#45;&gt;AppModule -->
<g id="edge6" class="edge">
<title>LoginComponent&#45;&gt;AppModule</title>
<path fill="none" stroke="#000000" d="M1764,-122.0225C1764,-139.3734 1764,-163 1764,-163 1764,-163 1367.7445,-163 1367.7445,-163"/>
<polygon fill="#000000" stroke="#000000" points="1367.7445,-159.5001 1357.7445,-163 1367.7444,-166.5001 1367.7445,-159.5001"/>
</g>
<!-- MessagesComponent -->
<g id="node7" class="node">
<title>MessagesComponent</title>
<polygon fill="#ffffb3" stroke="#000000" points="1688.7548,-122 1553.2452,-122 1553.2452,-86 1688.7548,-86 1688.7548,-122"/>
<text text-anchor="middle" x="1621" y="-99.8" font-family="Times,serif" font-size="14.00" fill="#000000">MessagesComponent</text>
</g>
<!-- MessagesComponent&#45;&gt;AppModule -->
<g id="edge7" class="edge">
<title>MessagesComponent&#45;&gt;AppModule</title>
<path fill="none" stroke="#000000" d="M1621,-122.0091C1621,-138.0494 1621,-159 1621,-159 1621,-159 1367.7694,-159 1367.7694,-159"/>
<polygon fill="#000000" stroke="#000000" points="1367.7695,-155.5001 1357.7694,-159 1367.7694,-162.5001 1367.7695,-155.5001"/>
</g>
<!-- NavbarComponent -->
<g id="node8" class="node">
<title>NavbarComponent</title>
<polygon fill="#ffffb3" stroke="#000000" points="1535.0297,-122 1412.9703,-122 1412.9703,-86 1535.0297,-86 1535.0297,-122"/>
<text text-anchor="middle" x="1474" y="-99.8" font-family="Times,serif" font-size="14.00" fill="#000000">NavbarComponent</text>
</g>
<!-- NavbarComponent&#45;&gt;AppModule -->
<g id="edge8" class="edge">
<title>NavbarComponent&#45;&gt;AppModule</title>
<path fill="none" stroke="#000000" d="M1474,-122.1243C1474,-136.7832 1474,-155 1474,-155 1474,-155 1367.9263,-155 1367.9263,-155"/>
<polygon fill="#000000" stroke="#000000" points="1367.9263,-151.5001 1357.9263,-155 1367.9262,-158.5001 1367.9263,-151.5001"/>
</g>
<!-- NewMessageComponent -->
<g id="node9" class="node">
<title>NewMessageComponent</title>
<polygon fill="#ffffb3" stroke="#000000" points="1394.238,-122 1237.762,-122 1237.762,-86 1394.238,-86 1394.238,-122"/>
<text text-anchor="middle" x="1316" y="-99.8" font-family="Times,serif" font-size="14.00" fill="#000000">NewMessageComponent</text>
</g>
<!-- NewMessageComponent&#45;&gt;AppModule -->
<g id="edge9" class="edge">
<title>NewMessageComponent&#45;&gt;AppModule</title>
<path fill="none" stroke="#000000" d="M1316,-122.1061C1316,-122.1061 1316,-140.991 1316,-140.991"/>
<polygon fill="#000000" stroke="#000000" points="1312.5001,-140.9909 1316,-150.991 1319.5001,-140.991 1312.5001,-140.9909"/>
</g>
<!-- SetCompetenciaComponent -->
<g id="node10" class="node">
<title>SetCompetenciaComponent</title>
<polygon fill="#ffffb3" stroke="#000000" points="1219.587,-122 1046.413,-122 1046.413,-86 1219.587,-86 1219.587,-122"/>
<text text-anchor="middle" x="1133" y="-99.8" font-family="Times,serif" font-size="14.00" fill="#000000">SetCompetenciaComponent</text>
</g>
<!-- SetCompetenciaComponent&#45;&gt;AppModule -->
<g id="edge10" class="edge">
<title>SetCompetenciaComponent&#45;&gt;AppModule</title>
<path fill="none" stroke="#000000" d="M1133,-122.1243C1133,-136.7832 1133,-155 1133,-155 1133,-155 1264.0161,-155 1264.0161,-155"/>
<polygon fill="#000000" stroke="#000000" points="1264.0161,-158.5001 1274.0161,-155 1264.0161,-151.5001 1264.0161,-158.5001"/>
</g>
<!-- SetCualificacionComponent -->
<g id="node11" class="node">
<title>SetCualificacionComponent</title>
<polygon fill="#ffffb3" stroke="#000000" points="1028.1386,-122 853.8614,-122 853.8614,-86 1028.1386,-86 1028.1386,-122"/>
<text text-anchor="middle" x="941" y="-99.8" font-family="Times,serif" font-size="14.00" fill="#000000">SetCualificacionComponent</text>
</g>
<!-- SetCualificacionComponent&#45;&gt;AppModule -->
<g id="edge11" class="edge">
<title>SetCualificacionComponent&#45;&gt;AppModule</title>
<path fill="none" stroke="#000000" d="M941,-122.0091C941,-138.0494 941,-159 941,-159 941,-159 1264.0743,-159 1264.0743,-159"/>
<polygon fill="#000000" stroke="#000000" points="1264.0743,-162.5001 1274.0743,-159 1264.0743,-155.5001 1264.0743,-162.5001"/>
</g>
<!-- UserComponent -->
<g id="node12" class="node">
<title>UserComponent</title>
<polygon fill="#ffffb3" stroke="#000000" points="835.7591,-122 728.2409,-122 728.2409,-86 835.7591,-86 835.7591,-122"/>
<text text-anchor="middle" x="782" y="-99.8" font-family="Times,serif" font-size="14.00" fill="#000000">UserComponent</text>
</g>
<!-- UserComponent&#45;&gt;AppModule -->
<g id="edge12" class="edge">
<title>UserComponent&#45;&gt;AppModule</title>
<path fill="none" stroke="#000000" d="M782,-122.0225C782,-139.3734 782,-163 782,-163 782,-163 1264.0979,-163 1264.0979,-163"/>
<polygon fill="#000000" stroke="#000000" points="1264.098,-166.5001 1274.0979,-163 1264.0979,-159.5001 1264.098,-166.5001"/>
</g>
<!-- UsersComponent -->
<g id="node13" class="node">
<title>UsersComponent</title>
<polygon fill="#ffffb3" stroke="#000000" points="710.7036,-122 597.2964,-122 597.2964,-86 710.7036,-86 710.7036,-122"/>
<text text-anchor="middle" x="654" y="-99.8" font-family="Times,serif" font-size="14.00" fill="#000000">UsersComponent</text>
</g>
<!-- UsersComponent&#45;&gt;AppModule -->
<g id="edge13" class="edge">
<title>UsersComponent&#45;&gt;AppModule</title>
<path fill="none" stroke="#000000" d="M654,-122.2222C654,-140.8285 654,-167 654,-167 654,-167 1264.3382,-167 1264.3382,-167"/>
<polygon fill="#000000" stroke="#000000" points="1264.3382,-170.5001 1274.3382,-167 1264.3381,-163.5001 1264.3382,-170.5001"/>
</g>
<!-- _404Component -->
<g id="node14" class="node">
<title>_404Component</title>
<polygon fill="#ffffb3" stroke="#000000" points="579.8329,-122 470.1671,-122 470.1671,-86 579.8329,-86 579.8329,-122"/>
<text text-anchor="middle" x="525" y="-99.8" font-family="Times,serif" font-size="14.00" fill="#000000">_404Component</text>
</g>
<!-- _404Component&#45;&gt;AppModule -->
<g id="edge14" class="edge">
<title>_404Component&#45;&gt;AppModule</title>
<path fill="none" stroke="#000000" d="M525,-122.308C525,-142.1455 525,-171 525,-171 525,-171 1264.3089,-171 1264.3089,-171"/>
<polygon fill="#000000" stroke="#000000" points="1264.3089,-174.5001 1274.3089,-171 1264.3089,-167.5001 1264.3089,-174.5001"/>
</g>
<!-- AppComponent  -->
<g id="node17" class="node">
<title>AppComponent </title>
<polygon fill="#80b1d3" stroke="#000000" points="1370.439,-252 1261.561,-252 1261.561,-216 1370.439,-216 1370.439,-252"/>
<text text-anchor="middle" x="1316" y="-229.8" font-family="Times,serif" font-size="14.00" fill="#000000">AppComponent </text>
</g>
<!-- AppModule&#45;&gt;AppComponent  -->
<g id="edge16" class="edge">
<title>AppModule&#45;&gt;AppComponent </title>
<path fill="none" stroke="#000000" stroke-dasharray="1,5" d="M1316,-187.1061C1316,-187.1061 1316,-205.991 1316,-205.991"/>
<polygon fill="#000000" stroke="#000000" points="1312.5001,-205.9909 1316,-215.991 1319.5001,-205.991 1312.5001,-205.9909"/>
</g>
<!-- RoutingModule -->
<g id="node16" class="node">
<title>RoutingModule</title>
<polygon fill="#8dd3c7" stroke="#000000" points="446.1681,-122 443.1681,-126 422.1681,-126 419.1681,-122 341.8319,-122 341.8319,-86 446.1681,-86 446.1681,-122"/>
<text text-anchor="middle" x="394" y="-99.8" font-family="Times,serif" font-size="14.00" fill="#000000">RoutingModule</text>
</g>
<!-- RoutingModule&#45;&gt;AppModule -->
<g id="edge15" class="edge">
<title>RoutingModule&#45;&gt;AppModule</title>
<path fill="none" stroke="#000000" d="M394,-122.2843C394,-143.3211 394,-175 394,-175 394,-175 1264.2906,-175 1264.2906,-175"/>
<polygon fill="#000000" stroke="#000000" points="1264.2906,-178.5001 1274.2906,-175 1264.2905,-171.5001 1264.2906,-178.5001"/>
</g>
<!-- LoginService -->
<g id="node18" class="node">
<title>LoginService</title>
<ellipse fill="#fdb462" stroke="#000000" cx="255" cy="-104" rx="63.1209" ry="18"/>
<text text-anchor="middle" x="255" y="-99.8" font-family="Times,serif" font-size="14.00" fill="#000000">LoginService</text>
</g>
<!-- LoginService&#45;&gt;AppModule -->
<g id="edge17" class="edge">
<title>LoginService&#45;&gt;AppModule</title>
<path fill="none" stroke="#000000" d="M255,-122.1554C255,-144.3519 255,-179 255,-179 255,-179 1264.0808,-179 1264.0808,-179"/>
<polygon fill="#000000" stroke="#000000" points="1264.0808,-182.5001 1274.0808,-179 1264.0807,-175.5001 1264.0808,-182.5001"/>
</g>
<!-- PermisosService -->
<g id="node19" class="node">
<title>PermisosService</title>
<ellipse fill="#fdb462" stroke="#000000" cx="99" cy="-104" rx="75.2944" ry="18"/>
<text text-anchor="middle" x="99" y="-99.8" font-family="Times,serif" font-size="14.00" fill="#000000">PermisosService</text>
</g>
<!-- PermisosService&#45;&gt;AppModule -->
<g id="edge18" class="edge">
<title>PermisosService&#45;&gt;AppModule</title>
<path fill="none" stroke="#000000" d="M99,-122.3228C99,-145.6602 99,-183 99,-183 99,-183 1264.1081,-183 1264.1081,-183"/>
<polygon fill="#000000" stroke="#000000" points="1264.1081,-186.5001 1274.1081,-183 1264.1081,-179.5001 1264.1081,-186.5001"/>
</g>
</g>
</svg>
